<?xml version="1.0" standalone="no"?>
<!DOCTYPE svg PUBLIC "-//W3C//DTD SVG 20010904//EN"
 "http://www.w3.org/TR/2001/REC-SVG-20010904/DTD/svg10.dtd">
<svg version="1.0" xmlns="http://www.w3.org/2000/svg"
 width="300.000000pt" height="200.000000pt" viewBox="0 0 300.000000 200.000000"
 preserveAspectRatio="xMidYMid meet">
<metadata>
Created by potrace 1.10, written by Peter Selinger 2001-2011
</metadata>
<g transform="translate(0.000000,200.000000) scale(0.100000,-0.100000)"
fill="#000000" stroke="none">
<path d="M540 1839 c-54 -22 -84 -67 -93 -139 -3 -25 -9 -322 -12 -660 l-6
-615 23 -40 c14 -24 42 -50 68 -65 l45 -25 921 -3 c657 -3 933 0 963 8 53 14
107 61 122 107 9 27 11 199 7 683 -5 734 0 693 -88 738 l-44 22 -941 -1 c-595
0 -949 -4 -965 -10z m1947 -40 c18 -12 39 -31 45 -42 9 -16 13 -182 17 -602 6
-745 6 -719 -16 -757 -35 -60 -55 -67 -203 -73 -74 -2 -241 -5 -370 -7 l-235
-2 190 -6 c105 -3 -75 -6 -400 -6 -324 0 -498 3 -385 6 113 3 169 7 125 8 -44
1 -138 4 -210 7 -71 2 -209 5 -306 5 -203 1 -231 9 -264 75 -23 46 -24 110
-11 690 4 176 7 390 8 475 0 160 6 187 44 221 11 10 28 19 39 21 11 3 443 5
960 6 929 1 940 1 972 -19z"/>
<path d="M760 1767 c-42 -19 -79 -66 -85 -111 -3 -22 -6 -247 -8 -498 l-2
-457 30 -30 c16 -17 46 -36 66 -41 24 -7 301 -9 766 -8 677 3 731 4 756 21 32
21 66 84 67 124 0 15 0 102 0 191 0 90 2 168 6 173 3 5 2 9 -3 9 -6 0 -8 120
-3 205 1 6 -2 84 -5 175 -7 182 -12 197 -76 235 -33 19 -53 20 -759 21 -502 1
-733 -2 -750 -9z m1496 -32 c64 -26 64 -29 64 -551 l0 -466 -34 -34 -34 -34
-752 2 -752 3 -30 34 -31 35 6 475 c6 443 8 478 25 501 38 51 19 50 785 50
608 0 723 -2 753 -15z"/>
<path d="M756 1691 c-17 -18 -16 -20 3 -26 12 -3 21 -11 21 -16 0 -13 -14 -11
-28 3 -6 6 -13 10 -16 7 -2 -2 -6 -185 -8 -406 -5 -371 -4 -403 12 -418 16
-14 17 8 23 385 5 344 8 402 21 416 14 13 49 15 238 14 123 -1 228 -2 234 -3
9 0 11 -18 5 -48 0 -4 -22 -7 -48 -7 -27 0 -52 -1 -58 -2 -5 -1 -12 -2 -15 -2
-3 0 -5 -133 -4 -296 0 -208 -2 -255 -6 -157 -3 77 -7 136 -8 130 -8 -28 0
-270 9 -273 5 -2 7 -8 3 -13 -3 -5 7 -14 21 -19 17 -7 24 -14 18 -22 -9 -16
-5 -49 9 -66 9 -10 -29 -12 -193 -10 l-203 3 -7 25 c-7 24 -7 23 -8 -6 -1 -17
5 -37 13 -43 10 -8 210 -11 740 -11 400 1 731 -2 736 -5 23 -14 27 62 22 437
-5 383 -6 397 -23 387 -25 -13 -26 6 -1 20 16 10 16 12 -2 26 -17 13 -116 15
-751 15 -708 0 -732 -1 -749 -19z m1471 -18 c3 -8 -176 -10 -719 -8 -398 1
-724 3 -726 4 -2 0 0 5 3 11 9 15 1437 9 1442 -7z m-818 -48 c1 15 41 13 41
-2 0 -6 -4 -15 -10 -18 -5 -3 -10 -2 -10 3 0 6 -8 8 -17 6 -10 -2 -45 -5 -79
-7 -52 -2 -60 0 -57 14 4 13 16 16 54 15 28 -2 53 2 56 8 4 5 10 1 14 -10 4
-10 8 -14 8 -9z m691 7 c0 -10 5 -23 11 -29 9 -9 -38 -12 -181 -12 -185 0
-192 1 -187 20 6 23 1 24 -20 4 -8 -8 -18 -13 -23 -10 -4 3 -28 6 -52 7 -23 0
-46 6 -50 12 -5 7 -8 7 -8 -2 0 -7 -4 -10 -10 -7 -5 3 -10 2 -10 -3 0 -5 -11
-7 -25 -4 -14 2 -25 10 -25 17 0 9 26 12 99 10 55 -1 106 2 113 6 7 5 93 9
191 9 164 0 177 -1 177 -18z m-590 -8 c0 -16 -38 -14 -44 2 -3 7 5 12 20 12
13 0 24 -6 24 -14z m650 6 c0 -5 5 -10 11 -10 5 0 7 5 4 10 -4 6 5 10 20 10
20 0 26 -4 23 -17 -4 -24 -78 -27 -78 -3 0 12 -2 12 -9 2 -7 -11 -9 -11 -14 2
-5 12 0 16 18 16 14 0 25 -4 25 -10z m99 -147 c1 -34 -3 -65 -9 -68 -6 -4 -10
25 -10 79 0 47 -4 88 -10 91 -6 4 -5 13 3 26 11 18 13 16 19 -23 3 -24 7 -71
7 -105z m-759 -54 l0 -150 -175 2 -175 3 0 148 0 148 175 0 175 0 0 -151z
m361 147 c2 -2 3 -50 1 -105 l-3 -101 -43 2 -43 1 14 29 c8 15 21 28 29 28 15
0 29 43 19 60 -4 6 -19 10 -33 9 -15 -1 -36 -1 -47 0 -19 2 -19 3 3 11 12 5
22 17 21 27 0 16 -1 16 -7 2 -10 -23 -114 -22 -124 0 -6 14 -7 14 -7 -1 -1
-10 -8 -18 -16 -18 -8 0 -15 8 -16 18 0 11 -2 12 -6 4 -3 -7 0 -19 7 -27 15
-18 3 -40 -14 -26 -9 7 -19 6 -34 -5 -17 -12 -20 -19 -12 -34 5 -10 10 -29 10
-41 0 -32 6 -21 13 23 5 31 3 36 -11 32 -13 -4 -12 -2 3 11 19 15 20 15 23
-21 5 -61 -3 -79 -38 -80 -16 -1 -30 4 -31 10 -3 45 -5 182 -2 189 4 7 336 10
344 3z m369 -145 l0 -149 -175 -2 -175 -1 0 41 0 40 172 0 c125 0 169 3 161
11 -13 13 -274 17 -310 5 -23 -7 -23 -7 -23 98 l0 106 175 0 175 0 0 -149z
m-516 52 c-16 -33 -18 -43 -5 -43 5 0 11 10 13 23 2 14 11 23 26 25 12 2 22
-1 22 -6 0 -5 -10 -13 -22 -17 l-23 -7 25 -7 c28 -8 39 -39 18 -52 -17 -11
-48 -11 -48 0 0 5 9 7 20 4 15 -4 20 0 20 16 0 14 -6 21 -20 21 -11 0 -20 -4
-20 -9 0 -5 -9 -11 -20 -14 -11 -3 -20 -11 -20 -19 0 -10 2 -10 10 2 5 8 12
11 17 7 18 -19 -40 -34 -65 -18 -12 7 -11 14 2 39 20 39 20 42 -4 42 -11 0
-20 5 -20 10 0 6 14 10 30 10 34 0 36 -8 14 -51 -8 -17 -13 -36 -11 -42 2 -7
14 8 25 32 24 48 18 66 -21 74 -12 2 -1 5 25 6 l47 1 -15 -27z m113 -9 c8 -21
-13 -42 -28 -27 -13 13 -5 43 11 43 6 0 13 -7 17 -16z m-198 -18 c9 -10 9 -16
1 -21 -6 -4 -10 -18 -8 -32 2 -19 -2 -27 -15 -29 -14 -2 -16 2 -10 19 4 12 7
34 7 50 -1 30 7 34 25 13z m618 -88 c-3 -8 -6 -5 -6 6 -1 11 2 17 5 13 3 -3 4
-12 1 -19z m-385 -44 c2 -20 0 -38 -6 -40 -6 -2 -85 -3 -176 -2 l-164 3 -1 38
-2 37 173 0 172 0 4 -36z m385 -186 c-2 -29 -3 -8 -3 47 0 55 1 79 3 53 2 -26
2 -71 0 -100z m-747 -13 l0 -145 -175 0 -175 0 0 145 0 145 175 0 175 0 0
-145z m365 0 l0 -145 -176 0 -176 0 2 36 2 36 167 -2 c109 0 166 3 166 10 0 6
-26 10 -64 10 l-65 0 14 28 c8 15 20 27 26 27 17 0 33 30 26 49 -4 11 -19 16
-47 16 -23 0 -39 3 -36 8 2 4 21 7 41 6 40 -2 53 13 36 43 -9 16 -10 16 -11
-5 0 -16 -5 -22 -16 -20 -8 2 -14 8 -12 13 2 6 6 9 11 8 4 -2 7 2 7 7 0 6 -7
10 -15 10 -14 0 -19 -12 -16 -32 0 -5 -35 -8 -79 -8 -69 0 -80 2 -81 18 0 11
-2 12 -6 4 -10 -26 17 -42 68 -38 27 3 49 0 49 -5 0 -15 -31 -23 -39 -10 -6 9
-14 6 -32 -9 -22 -19 -22 -20 -2 -11 32 16 33 15 33 -34 0 -26 -5 -45 -11 -45
-7 0 -10 14 -7 35 2 19 1 35 -3 35 -14 0 -18 -17 -10 -46 6 -23 13 -29 34 -30
15 -1 30 -4 34 -8 3 -3 -30 -6 -74 -6 l-81 0 -6 34 c-4 19 -6 64 -5 100 l2 66
176 0 176 0 0 -145z m365 0 l0 -145 -175 0 -175 0 0 145 0 145 175 0 175 0 0
-145z m-504 28 c9 -33 -6 -57 -37 -60 l-24 -3 25 11 25 11 -22 9 c-22 8 -31
38 -16 52 16 17 43 6 49 -20z m52 10 c-2 -10 -10 -18 -18 -18 -8 0 -16 8 -18
18 -2 12 3 17 18 17 15 0 20 -5 18 -17z m-108 -47 c0 -3 -4 -8 -10 -11 -5 -3
-10 -1 -10 4 0 6 5 11 10 11 6 0 10 -2 10 -4z m577 -68 c-3 -7 -5 -2 -5 12 0
14 2 19 5 13 2 -7 2 -19 0 -25z m0 -40 c-3 -8 -6 -5 -6 6 -1 11 2 17 5 13 3
-3 4 -12 1 -19z m3 -81 l0 -63 -41 -3 -41 -2 21 27 21 27 -22 24 -21 23 30 0
c18 0 33 6 37 15 11 29 16 14 16 -48z m-320 25 c0 -3 -8 -14 -17 -24 -15 -17
-15 -20 4 -46 l20 -27 -166 2 c-91 1 -165 6 -163 10 3 10 2 10 115 13 50 2 78
5 61 7 -27 3 -31 8 -26 25 5 20 6 20 19 3 11 -16 13 -16 13 -3 0 9 6 19 13 21
6 3 -3 4 -20 2 -18 -2 -33 0 -33 5 0 6 -54 7 -70 0 -11 -5 -66 2 -73 10 -5 4
51 9 124 9 73 1 134 3 136 5 5 5 63 -6 63 -12z m-394 -11 c-22 -26 -24 -45 -8
-63 16 -18 7 -20 -83 -20 -8 0 -59 0 -112 1 -128 1 -111 19 22 23 86 3 100 5
103 21 2 9 -1 17 -7 17 -6 0 -8 -7 -5 -15 5 -12 -4 -15 -50 -14 -44 1 -56 5
-57 18 -1 13 -2 12 -6 -2 -5 -18 -5 -18 -19 0 -13 16 -13 16 -8 1 5 -14 1 -18
-16 -18 -18 0 -21 4 -18 25 5 21 3 23 -14 14 -11 -6 -17 -17 -14 -24 2 -7 -2
-16 -11 -19 -25 -10 -53 3 -53 25 0 19 7 23 48 21 12 -1 20 3 17 8 -8 14 30
17 172 17 119 -1 131 -2 119 -16z m633 -5 l23 -25 -23 -29 c-21 -25 -30 -29
-64 -26 -22 2 -65 3 -96 3 -50 1 -59 4 -74 27 -16 25 -16 27 6 50 21 22 30 24
114 24 84 0 93 -2 114 -24z m-571 -28 c3 -25 0 -28 -27 -28 -26 0 -31 4 -31
23 0 30 9 39 35 35 13 -2 21 -12 23 -30z m47 11 c5 9 10 9 20 1 9 -8 15 -8 20
0 3 5 11 10 16 10 6 0 7 -6 3 -12 -6 -10 -5 -10 7 -1 9 7 20 8 28 4 27 -17 -1
-30 -63 -30 -55 0 -64 3 -61 17 2 9 4 19 4 22 1 3 5 -1 10 -9 6 -9 10 -10 16
-2z"/>
<path d="M1211 1544 c0 -11 3 -14 6 -6 3 7 2 16 -1 19 -3 4 -6 -2 -5 -13z"/>
<path d="M1321 1543 c-1 -13 -6 -23 -12 -23 -5 0 -7 6 -3 13 6 9 4 9 -7 1 -22
-16 -96 -18 -102 -2 -2 9 -4 8 -3 -2 1 -12 21 -16 90 -20 77 -4 87 -7 73 -19
-19 -15 -22 -42 -6 -58 7 -7 3 -12 -15 -15 -29 -6 -30 -4 -17 20 5 9 5 27 0
39 -7 19 -15 21 -66 21 -59 -1 -80 -12 -61 -35 7 -9 6 -20 -6 -38 -22 -33 -3
-32 23 1 27 34 26 44 -1 44 -16 0 -19 3 -11 11 15 15 43 4 43 -18 0 -9 -10
-27 -22 -40 l-21 -23 31 0 c21 0 37 8 51 26 27 34 26 44 -1 44 -16 0 -19 3
-11 11 16 16 43 4 43 -19 0 -10 -9 -27 -21 -38 l-21 -19 28 -6 c19 -4 6 -7
-39 -8 -46 -1 -73 -6 -83 -16 -14 -13 3 -15 153 -15 116 1 163 4 151 11 -9 5
-29 7 -43 5 -29 -5 -29 -5 -14 28 6 13 20 27 30 29 43 11 28 73 -15 64 -12 -3
-30 -1 -41 3 -15 7 -9 9 24 9 40 1 52 16 13 16 -10 0 -16 7 -16 17 1 10 -3 15
-8 12 -5 -3 -7 -13 -4 -21 4 -9 1 -13 -6 -10 -7 2 -12 11 -12 20 1 9 -3 14 -8
11 -5 -3 -7 -13 -4 -21 4 -10 0 -13 -17 -11 -12 2 -25 12 -29 23 -6 19 -6 18
-7 -2z m89 -63 c0 -5 -9 -10 -20 -10 -11 0 -20 -4 -20 -10 0 -5 6 -10 14 -10
7 0 19 -7 26 -15 10 -12 10 -18 0 -30 -14 -17 -46 -20 -55 -5 -4 6 3 9 16 7
29 -3 37 23 10 30 -14 3 -21 13 -21 29 0 19 5 24 25 24 14 0 25 -4 25 -10z
m57 -6 c8 -20 -17 -36 -34 -22 -10 8 -10 14 -2 24 15 18 28 18 36 -2z m-197
-28 c0 -2 -7 -9 -15 -16 -13 -11 -14 -10 -9 4 5 14 24 23 24 12z"/>
<path d="M1190 1319 c0 -5 5 -7 10 -4 6 3 10 8 10 11 0 2 -4 4 -10 4 -5 0 -10
-5 -10 -11z"/>
<path d="M2055 1549 c-4 -5 -3 -13 0 -19 3 -5 -1 -10 -10 -10 -10 0 -14 5 -9
13 6 10 4 10 -7 0 -19 -18 -37 -16 -42 5 -4 16 -5 16 -6 0 -1 -23 -41 -24 -41
-2 0 8 -5 12 -11 9 -18 -12 21 -46 45 -39 20 6 20 5 -2 -19 -15 -16 -20 -27
-13 -32 6 -3 11 -17 11 -30 0 -13 5 -27 10 -30 6 -4 10 10 10 35 0 30 -3 39
-12 34 -7 -4 -2 5 11 19 27 29 74 40 51 12 -11 -13 -9 -15 10 -13 12 2 27 -5
33 -14 9 -14 6 -22 -13 -44 -25 -26 -25 -27 -3 -22 12 3 24 1 27 -6 3 -6 4 0
3 14 -2 19 3 24 22 25 35 0 50 29 27 54 -17 19 -17 19 6 23 13 2 24 11 26 22
3 11 0 16 -7 11 -6 -3 -9 -11 -6 -16 4 -5 -16 -9 -44 -9 -46 0 -72 13 -56 28
3 3 10 1 14 -7 7 -10 9 -10 14 1 6 16 -29 22 -38 7z m60 -49 c-3 -5 -12 -10
-20 -10 -8 0 -17 5 -20 10 -4 6 5 10 20 10 15 0 24 -4 20 -10z m24 -24 c9 -10
8 -16 -4 -26 -19 -16 -41 1 -32 24 8 20 21 20 36 2z"/>
<path d="M2000 1440 c0 -57 10 -62 45 -22 28 31 32 52 9 52 -8 0 -13 -4 -10
-9 3 -4 -2 -17 -10 -27 -15 -18 -15 -17 -10 13 4 22 1 33 -9 37 -12 4 -15 -5
-15 -44z"/>
<path d="M2142 1320 c0 -14 2 -19 5 -12 2 6 2 18 0 25 -3 6 -5 1 -5 -13z"/>
<path d="M1905 1320 c-2 -3 5 -6 15 -7 11 -1 22 2 24 5 3 4 -4 8 -15 8 -11 0
-22 -3 -24 -6z"/>
<path d="M2160 1318 c0 -3 9 -6 20 -5 11 1 20 5 20 9 0 3 -9 6 -20 5 -11 -1
-20 -5 -20 -9z"/>
<path d="M1552 1320 c0 -14 2 -19 5 -12 2 6 2 18 0 25 -3 6 -5 1 -5 -13z"/>
<path d="M1212 1255 c9 -9 77 -12 90 -3 8 4 -10 8 -41 8 -30 0 -52 -2 -49 -5z"/>
<path d="M1330 1241 c0 -16 -8 -19 -69 -19 -57 0 -71 3 -74 16 -4 15 -5 15 -6
-1 -1 -23 18 -30 85 -30 38 -1 51 -4 44 -11 -6 -6 -25 -11 -43 -11 -35 0 -38
-9 -23 -72 7 -32 7 -32 -36 -35 -24 -2 -42 -7 -40 -13 1 -6 62 -10 157 -10 95
0 156 4 158 10 1 6 -11 11 -28 13 -118 9 -155 15 -155 21 0 5 11 6 25 3 19 -3
25 0 25 13 0 14 -6 16 -32 12 -18 -3 -27 -3 -20 0 6 2 12 16 12 29 0 20 5 24
28 23 23 -2 24 -2 5 -6 -13 -2 -23 -8 -23 -11 0 -4 10 -12 23 -17 15 -7 21
-18 20 -33 -2 -13 1 -21 7 -17 6 3 10 13 10 21 0 8 9 14 20 14 11 0 23 7 26
15 6 14 4 21 -7 49 -2 5 4 10 15 12 54 8 45 55 -11 53 -21 -1 -30 -3 -20 -6 9
-2 14 -9 11 -15 -5 -7 -2 -8 7 -2 23 14 39 13 39 -2 0 -10 -15 -14 -61 -14
-56 0 -61 2 -56 20 3 11 1 20 -4 20 -5 0 -9 -8 -9 -19z m45 -41 c3 -6 -4 -9
-19 -8 -13 1 -22 6 -20 10 7 11 32 10 39 -2z m-96 -65 c1 -26 -2 -45 -9 -45
-5 0 -10 16 -10 36 0 21 -4 33 -10 29 -5 -3 -10 -2 -10 4 0 8 14 18 31 20 3 1
6 -19 8 -44z m139 28 c5 -18 -28 -29 -38 -12 -5 7 -6 17 -3 22 7 12 35 5 41
-10z"/>
<path d="M1192 1020 c0 -14 2 -19 5 -12 2 6 2 18 0 25 -3 6 -5 1 -5 -13z"/>
<path d="M1672 1248 c2 -6 10 -13 16 -14 7 -1 8 0 2 3 -5 2 -8 9 -4 14 3 5 0
9 -6 9 -7 0 -10 -5 -8 -12z"/>
<path d="M1801 1234 c0 -11 3 -14 6 -6 3 7 2 16 -1 19 -3 4 -6 -2 -5 -13z"/>
<path d="M1935 1250 c-11 -17 5 -49 21 -43 17 6 19 -8 3 -24 -8 -8 -7 -16 2
-31 10 -15 10 -24 1 -34 -6 -8 -8 -24 -5 -37 5 -19 10 -22 32 -16 14 3 40 7
57 8 36 3 64 22 64 44 0 8 4 12 9 9 4 -3 16 3 25 13 26 29 5 64 -32 57 -15 -3
-34 -1 -42 4 -13 10 -13 11 0 9 8 -1 36 -1 63 0 42 1 47 3 46 24 -1 17 -2 18
-6 4 -4 -16 -15 -18 -86 -16 -47 1 -85 6 -89 13 -5 7 -8 7 -8 -3 0 -11 -3 -11
-17 0 -11 10 -14 10 -9 2 4 -9 1 -13 -10 -13 -11 0 -15 6 -11 20 6 22 2 26 -8
10z m109 -49 c3 -3 -6 -8 -20 -9 -13 -1 -24 2 -24 6 0 10 38 13 44 3z m-27
-37 c3 -8 -4 -25 -17 -39 l-22 -23 24 -5 c17 -3 15 -5 -10 -6 l-33 -1 20 26
c27 35 28 57 1 49 -11 -4 -20 -2 -20 4 0 17 50 13 57 -5z m68 -29 c0 -37 -2
-40 -30 -42 -25 -2 -26 -1 -7 5 26 8 26 27 0 26 -25 -1 -22 5 8 16 28 11 23
35 -7 27 -11 -3 -19 -1 -19 5 0 5 12 8 28 6 24 -3 27 -7 27 -43z m58 39 c9
-10 -4 -34 -18 -34 -17 0 -28 17 -20 30 7 11 28 13 38 4z"/>
<path d="M2115 1160 c3 -5 8 -10 11 -10 2 0 4 5 4 10 0 6 -5 10 -11 10 -5 0
-7 -4 -4 -10z"/>
<path d="M1968 1253 c7 -3 16 -2 19 1 4 3 -2 6 -13 5 -11 0 -14 -3 -6 -6z"/>
<path d="M2008 1252 c12 -8 72 -4 72 4 0 2 -19 4 -42 4 -26 0 -38 -4 -30 -8z"/>
<path d="M2120 1256 c0 -9 30 -14 35 -6 4 6 -3 10 -14 10 -12 0 -21 -2 -21 -4z"/>
<path d="M1903 1043 c4 -3 1 -13 -5 -22 -10 -12 -8 -12 8 2 22 18 64 23 64 7
0 -5 -10 -9 -21 -7 -12 1 -24 -5 -26 -13 -4 -13 -3 -13 6 0 8 11 13 12 19 3
11 -17 36 1 29 21 -4 11 -19 16 -43 16 -21 0 -34 -3 -31 -7z"/>
<path d="M1682 1153 c5 -25 28 -28 28 -4 0 12 -6 21 -16 21 -9 0 -14 -7 -12
-17z"/>
<path d="M1750 1160 c0 -5 5 -10 10 -10 6 0 10 5 10 10 0 6 -4 10 -10 10 -5 0
-10 -4 -10 -10z"/>
<path d="M1800 916 c0 -2 7 -9 15 -16 13 -11 14 -10 9 4 -5 14 -24 23 -24 12z"/>
<path d="M1325 931 c22 -4 45 -10 52 -14 6 -4 14 -3 18 3 3 5 11 10 16 10 6 0
8 -4 4 -9 -3 -5 0 -13 7 -17 7 -4 10 -4 6 1 -4 4 -3 14 2 20 8 9 -9 12 -68 12
-58 0 -67 -1 -37 -6z"/>
<path d="M1200 910 c0 -5 7 -10 15 -10 8 0 15 5 15 10 0 6 -7 10 -15 10 -8 0
-15 -4 -15 -10z"/>
<path d="M1951 926 c-9 -11 -10 -20 -1 -35 14 -28 16 -27 16 14 0 40 0 40 -15
21z"/>
<path d="M2002 927 c-9 -10 -8 -18 3 -33 11 -16 17 -17 33 -7 15 9 22 9 31 0
8 -8 15 -7 27 5 21 21 10 39 -24 37 -15 -1 -34 1 -43 5 -9 4 -21 1 -27 -7z
m36 -18 c-2 -6 -8 -10 -13 -10 -5 0 -11 4 -13 10 -2 6 4 11 13 11 9 0 15 -5
13 -11z m60 -1 c-6 -18 -28 -21 -28 -4 0 9 7 16 16 16 9 0 14 -5 12 -12z"/>
<path d="M2139 937 c-1 -4 -1 -18 -1 -32 0 -40 1 -41 18 -16 15 21 15 24 0 39
-9 9 -16 13 -17 9z"/>
<path d="M1560 900 c0 -5 4 -10 9 -10 6 0 13 5 16 10 3 6 -1 10 -9 10 -9 0
-16 -4 -16 -10z"/>
<path d="M818 1583 c12 -2 32 -2 45 0 12 2 2 4 -23 4 -25 0 -35 -2 -22 -4z"/>
<path d="M928 1583 c6 -2 18 -2 25 0 6 3 1 5 -13 5 -14 0 -19 -2 -12 -5z"/>
<path d="M797 1556 c-3 -7 1 -24 10 -36 12 -17 23 -21 54 -19 21 2 41 0 45 -4
4 -4 17 -7 29 -7 27 0 49 -24 41 -45 -3 -9 7 -29 24 -49 36 -40 37 -52 9 -67
-29 -15 -69 22 -66 62 1 16 7 27 12 26 6 -2 9 -15 8 -29 -1 -14 6 -33 16 -42
16 -15 19 -15 31 -1 11 13 10 19 -5 35 -10 11 -22 17 -28 13 -5 -3 -7 -1 -3 5
3 6 -8 22 -26 37 -30 24 -31 26 -9 22 17 -4 21 -3 13 5 -13 13 -46 2 -37 -12
4 -6 1 -18 -7 -27 -7 -9 -8 -14 -3 -11 13 8 42 -8 33 -17 -3 -4 -15 -2 -26 4
-20 11 -25 53 -9 79 5 7 4 12 -2 12 -12 0 -31 -33 -31 -54 0 -8 26 -42 58 -75
l59 -60 -66 -4 c-36 -2 -4 -4 72 -5 l137 -2 -2 53 -2 52 -3 -47 -4 -48 -60 0
c-59 0 -59 0 -39 20 24 24 26 53 5 70 -8 7 -20 30 -27 52 -6 22 -20 45 -31 53
-16 11 -7 13 67 12 l85 -2 4 -50 c2 -34 4 -24 5 33 l2 82 -164 0 c-130 0 -165
-3 -169 -14z m48 -6 c3 -5 2 -17 -3 -26 -8 -14 -10 -14 -21 0 -13 15 -8 36 9
36 5 0 12 -4 15 -10z m79 -5 c13 -14 16 -13 25 2 6 11 11 13 11 5 0 -8 5 -10
13 -5 17 11 97 10 97 -1 0 -6 5 -5 12 2 18 18 32 14 17 -5 -10 -11 -10 -14 -1
-9 6 4 12 2 12 -4 0 -12 -37 -9 -59 4 -10 6 -12 5 -7 -2 4 -7 1 -12 -8 -12 -9
0 -16 8 -17 18 0 14 -2 14 -9 -3 -8 -18 -9 -18 -9 -2 -1 10 -6 15 -11 12 -6
-4 -8 -10 -5 -15 3 -4 -26 -8 -64 -8 -54 0 -68 3 -64 13 4 12 18 19 45 24 4 0
13 -6 22 -14z"/>
<path d="M895 1540 c-3 -5 -1 -10 4 -10 6 0 11 5 11 10 0 6 -2 10 -4 10 -3 0
-8 -4 -11 -10z"/>
<path d="M813 1293 c9 -2 23 -2 30 0 6 3 -1 5 -18 5 -16 0 -22 -2 -12 -5z"/>
<path d="M843 1261 c-5 -3 -9 -15 -8 -26 0 -22 35 -35 76 -28 15 3 30 0 34 -7
6 -10 1 -11 -18 -6 -23 5 -30 1 -53 -36 l-27 -42 24 -19 c15 -12 32 -17 50
-13 14 3 31 0 37 -6 8 -8 16 -3 29 20 13 23 25 32 45 32 31 0 47 32 27 56 -10
12 -9 16 9 21 28 7 30 49 3 58 -23 7 -217 4 -228 -4z m87 -30 c0 -14 -2 -14
-10 -1 -7 10 -10 11 -10 2 0 -8 -11 -11 -30 -10 -17 1 -30 8 -30 16 0 7 4 11
8 8 4 -2 14 -1 21 3 19 12 51 1 51 -18z m72 4 c5 -6 8 -5 8 3 0 6 7 12 15 12
8 0 15 -8 15 -17 0 -15 -2 -16 -10 -3 -6 10 -10 11 -10 3 0 -8 -15 -13 -40
-13 -30 0 -40 4 -40 16 0 11 8 15 28 12 15 -1 30 -7 34 -13z m68 0 c0 -8 -4
-15 -10 -15 -5 0 -10 7 -10 15 0 8 5 15 10 15 6 0 10 -7 10 -15z m-55 -35 c3
-5 1 -10 -4 -10 -6 0 -11 5 -11 10 0 6 2 10 4 10 3 0 8 -4 11 -10z m-85 -80
c4 -3 2 -11 -6 -18 -8 -7 -14 -8 -14 -2 0 5 -9 10 -20 10 -26 0 -25 11 3 46
l22 29 3 -30 c2 -17 7 -32 12 -35z m70 50 c0 -16 -33 -80 -42 -80 -5 0 1 18
12 39 l20 40 -28 4 c-25 4 -25 4 6 6 17 0 32 -3 32 -9z m53 4 c9 -10 -4 -34
-18 -34 -17 0 -28 17 -20 30 7 11 28 13 38 4z"/>
<path d="M892 1140 c-10 -17 -10 -20 3 -20 8 0 15 9 15 20 0 11 -1 20 -3 20
-1 0 -8 -9 -15 -20z"/>
<path d="M1025 1160 c3 -5 8 -10 11 -10 2 0 4 5 4 10 0 6 -5 10 -11 10 -5 0
-7 -4 -4 -10z"/>
<path d="M772 1032 c0 -61 3 -110 7 -107 8 4 4 188 -4 210 -2 6 -4 -41 -3
-103z"/>
<path d="M819 1059 c-8 -5 -10 -9 -5 -9 5 0 3 -6 -3 -14 -9 -11 -9 -16 0 -21
8 -6 7 -10 -2 -16 -8 -5 43 -8 121 -7 119 2 123 3 38 5 l-98 4 0 28 c0 31 -26
46 -51 30z m33 -24 c0 -5 -5 -11 -11 -13 -6 -2 -11 4 -11 13 0 9 5 15 11 13 6
-2 11 -8 11 -13z"/>
<path d="M772 784 c8 -7 1448 -7 1456 0 3 3 -325 6 -728 6 -403 0 -731 -3
-728 -6z"/>
<path d="M1260 725 c0 -24 5 -35 15 -35 18 0 19 11 3 29 -10 11 -10 14 0 18
17 6 15 23 -3 23 -10 0 -15 -11 -15 -35z"/>
<path d="M1300 752 c0 -5 7 -9 15 -9 8 0 15 4 15 9 0 4 -7 8 -15 8 -8 0 -15
-4 -15 -8z"/>
<path d="M1690 735 c-4 -22 -11 -31 -27 -33 -16 -2 -23 2 -23 12 0 9 5 16 11
16 5 0 7 -4 4 -10 -3 -5 1 -10 10 -10 13 0 14 4 5 20 -7 12 -16 18 -23 13 -7
-4 -23 -8 -37 -8 -14 0 -31 -4 -37 -8 -15 -10 -17 -37 -3 -37 5 0 7 6 4 13 -3
8 3 13 15 13 11 0 17 -5 14 -13 -3 -7 0 -13 6 -13 6 0 11 8 11 18 1 16 1 16
10 0 7 -11 24 -16 60 -16 l50 -1 -1 37 c-1 35 -2 36 -8 8 -9 -42 -29 -44 -33
-4 l-4 33 -4 -30z"/>
<path d="M1711 744 c0 -11 3 -14 6 -6 3 7 2 16 -1 19 -3 4 -6 -2 -5 -13z"/>
<path d="M1350 741 c0 -5 8 -12 17 -15 13 -5 14 -9 4 -19 -10 -9 -15 -8 -27 7
-12 17 -14 17 -14 3 0 -10 -5 -14 -15 -11 -8 4 -15 2 -15 -4 0 -6 25 -10 56
-10 30 1 50 4 43 8 -6 5 -9 15 -6 23 4 11 1 14 -9 10 -7 -3 -14 0 -14 6 0 6
-4 11 -10 11 -5 0 -10 -4 -10 -9z"/>
<path d="M1470 740 c0 -5 5 -10 11 -10 5 0 7 5 4 10 -3 6 -8 10 -11 10 -2 0
-4 -4 -4 -10z"/>
<path d="M1428 730 c26 -11 29 -27 5 -33 -10 -2 0 -4 22 -4 21 -1 41 -6 43
-12 7 -20 20 -12 41 24 11 19 16 35 10 35 -5 0 -12 -7 -15 -15 -6 -14 -8 -13
-21 2 -13 16 -13 16 -3 -5 7 -13 10 -25 8 -27 -8 -8 -58 9 -58 20 0 13 -22 26
-43 24 -7 0 -2 -4 11 -9z"/>
<path d="M1288 723 c7 -3 16 -2 19 1 4 3 -2 6 -13 5 -11 0 -14 -3 -6 -6z"/>
<path d="M1478 713 c7 -3 16 -2 19 1 4 3 -2 6 -13 5 -11 0 -14 -3 -6 -6z"/>
<path d="M1358 313 c12 -2 32 -2 45 0 12 2 2 4 -23 4 -25 0 -35 -2 -22 -4z"/>
<path d="M1448 313 c12 -2 32 -2 45 0 12 2 2 4 -23 4 -25 0 -35 -2 -22 -4z"/>
<path d="M1568 313 c28 -2 76 -2 105 0 28 2 5 3 -53 3 -58 0 -81 -1 -52 -3z"/>
<path d="M900 235 c-11 -26 -19 -49 -17 -51 5 -5 99 -6 715 -5 l532 1 0 33 c0
17 -5 39 -11 47 -9 13 -10 13 -8 0 5 -50 5 -50 -106 -50 -63 0 -105 4 -105 10
0 6 -38 10 -95 10 -69 0 -95 -3 -95 -12 0 -9 -3 -10 -8 -2 -7 12 -42 15 -42 4
0 -3 -33 -2 -72 3 -80 10 -207 2 -222 -13 -12 -12 -113 -13 -120 -2 -3 5 20 6
51 4 40 -3 54 -2 49 7 -5 7 -64 11 -188 11 -197 0 -239 -7 -66 -11 59 -1 105
-6 103 -9 -6 -9 -271 -7 -279 1 -4 3 -2 19 4 34 18 48 1 40 -20 -10z m330 -25
c0 -5 -4 -10 -10 -10 -5 0 -10 5 -10 10 0 6 5 10 10 10 6 0 10 -4 10 -10z"/>
<path d="M947 255 c-3 -16 0 -24 7 -22 14 4 21 47 8 47 -5 0 -12 -11 -15 -25z"/>
<path d="M867 164 c-4 -7 -68 -13 -174 -17 -93 -2 -179 -10 -193 -15 -14 -6
-20 -11 -15 -12 73 -12 1485 -15 1825 -5 272 9 277 23 10 32 -91 3 -166 10
-168 14 -7 16 -22 9 -22 -10 0 -10 -8 -22 -17 -26 -23 -10 -1113 -16 -1178 -7
-41 6 -50 11 -55 32 -3 14 -9 20 -13 14z"/>
<path d="M428 123 c6 -2 18 -2 25 0 6 3 1 5 -13 5 -14 0 -19 -2 -12 -5z"/>
</g>
</svg>
