<?xml version="1.0" standalone="no"?>
<!DOCTYPE svg PUBLIC "-//W3C//DTD SVG 20010904//EN"
 "http://www.w3.org/TR/2001/REC-SVG-20010904/DTD/svg10.dtd">
<svg version="1.0" xmlns="http://www.w3.org/2000/svg"
 width="300.000000pt" height="240.000000pt" viewBox="0 0 300.000000 240.000000"
 preserveAspectRatio="xMidYMid meet">
<metadata>
Created by potrace 1.10, written by Peter Selinger 2001-2011
</metadata>
<g transform="translate(0.000000,240.000000) scale(0.100000,-0.100000)"
fill="#000000" stroke="none">
<path d="M1586 2322 c-3 -5 8 -6 24 -4 25 4 30 0 36 -24 4 -16 10 -33 14 -39
4 -5 35 -92 69 -191 34 -100 84 -244 112 -320 28 -77 51 -145 52 -151 0 -11
17 -20 17 -9 0 2 -23 67 -51 143 -28 76 -84 237 -125 357 -41 121 -79 225 -85
233 -13 14 -55 18 -63 5z"/>
<path d="M1505 2303 l-40 -13 40 6 c39 6 52 11 44 17 -2 2 -22 -2 -44 -10z"/>
<path d="M1215 2214 c-87 -30 -166 -62 -175 -71 -14 -15 -14 -16 1 -5 10 7 25
14 35 16 11 3 63 20 117 40 53 19 103 33 111 30 17 -7 86 22 86 35 0 15 4 16
-175 -45z"/>
<path d="M1440 2155 c-91 -30 -189 -62 -217 -71 -29 -9 -53 -23 -53 -30 0 -12
176 -523 183 -530 6 -6 462 165 460 173 -1 4 -42 122 -90 261 -63 184 -91 252
-103 252 -8 0 -89 -25 -180 -55z m266 -215 c46 -134 82 -245 81 -246 -13 -8
-423 -152 -425 -149 -7 6 -172 479 -172 492 0 11 405 154 424 149 5 -1 46
-112 92 -246z"/>
<path d="M1567 2153 c-11 -3 -16 -10 -13 -20 3 -8 6 -21 6 -29 0 -8 6 -11 15
-8 12 5 13 9 4 21 -9 11 -9 17 0 26 10 9 11 8 5 -7 -5 -13 -4 -17 4 -12 7 4
12 2 12 -3 0 -6 5 -11 11 -11 6 0 9 10 7 22 -3 23 -19 30 -51 21z"/>
<path d="M1446 2095 c-9 -24 11 -55 35 -55 30 0 23 64 -7 68 -13 2 -24 -4 -28
-13z m39 -5 c3 -6 -1 -7 -9 -4 -10 4 -16 1 -16 -7 0 -7 -3 -10 -6 -6 -7 7 4
27 16 27 5 0 12 -4 15 -10z"/>
<path d="M1555 2060 c-4 -6 -10 -8 -15 -5 -5 3 -11 1 -15 -5 -9 -15 45 -34 59
-20 8 8 6 9 -6 5 -13 -5 -18 -2 -18 10 0 10 5 13 12 9 7 -4 8 -3 4 4 -9 15
-13 15 -21 2z"/>
<path d="M1222 2031 c-11 -7 -11 -15 2 -44 13 -32 18 -36 38 -28 13 4 23 13
22 20 -1 6 -2 18 -2 26 -1 8 -7 15 -14 15 -6 0 -8 -3 -5 -7 4 -3 2 -12 -4 -20
-9 -10 -8 -13 2 -13 11 0 11 -2 -1 -10 -21 -13 -32 11 -12 27 14 11 14 13 2
11 -9 -2 -15 2 -15 7 0 6 5 10 12 10 6 0 15 4 19 8 10 10 -28 9 -44 -2z"/>
<path d="M1500 1995 c-10 -12 -10 -24 0 -61 7 -25 17 -41 22 -36 4 4 3 23 -3
41 -9 27 -9 35 2 42 22 14 25 11 38 -31 6 -22 16 -40 21 -40 12 0 12 -4 -4 50
-10 36 -18 46 -38 48 -14 2 -31 -4 -38 -13z"/>
<path d="M1443 1966 c3 -8 9 -31 13 -50 4 -22 12 -36 21 -36 8 0 12 3 10 8 -3
4 -10 26 -16 50 -7 23 -17 42 -22 42 -6 0 -9 -6 -6 -14z"/>
<path d="M1315 1936 c-26 -19 -12 -32 19 -18 22 10 25 8 35 -20 15 -43 14 -47
-15 -58 -24 -9 -25 -14 -19 -46 13 -74 30 -93 69 -78 27 10 18 26 -12 19 -22
-4 -28 -2 -28 12 -1 10 -4 30 -9 46 -6 23 -4 27 14 27 30 0 36 24 19 78 -15
52 -38 63 -73 38z"/>
<path d="M1585 1863 c4 -21 7 -42 8 -48 1 -5 -8 -11 -19 -13 -18 -3 -22 3 -28
37 -3 23 -11 41 -17 41 -13 0 -3 -56 17 -87 9 -14 20 -20 33 -16 34 9 40 24
28 76 -12 56 -33 65 -22 10z"/>
<path d="M1485 1831 c3 -24 10 -51 15 -60 16 -27 11 40 -6 74 l-14 30 5 -44z"/>
<path d="M1525 1770 c3 -5 8 -10 11 -10 2 0 4 5 4 10 0 6 -5 10 -11 10 -5 0
-7 -4 -4 -10z"/>
<path d="M1366 1597 c3 -10 9 -15 12 -12 3 3 0 11 -7 18 -10 9 -11 8 -5 -6z"/>
<path d="M1065 2130 c-3 -5 -15 -10 -25 -10 -18 0 -18 -1 0 -37 11 -21 56
-145 101 -276 45 -131 84 -236 86 -233 4 4 -18 73 -92 284 -19 57 -32 108 -29
114 4 6 2 8 -3 5 -6 -4 -14 0 -17 9 -10 25 -7 26 13 7 10 -10 37 -70 59 -133
40 -114 153 -427 168 -464 7 -19 5 -18 -32 3 l-39 23 28 -26 c15 -14 37 -26
47 -26 10 0 21 -4 24 -9 3 -5 66 17 138 48 73 32 160 67 193 79 33 11 83 29
110 40 28 10 59 22 69 26 10 3 17 9 14 12 -7 7 -229 -73 -387 -140 -74 -31
-137 -53 -141 -49 -7 9 -170 451 -236 641 -23 67 -45 118 -49 112z"/>
<path d="M1112 1729 c-6 -14 -16 -26 -24 -26 -20 -1 -185 -62 -168 -62 25 -1
182 57 198 72 8 8 12 21 9 29 -3 8 -8 4 -15 -13z"/>
<path d="M814 1630 c-46 -22 -84 -46 -88 -56 -5 -16 -4 -17 6 -4 7 9 47 31 88
49 82 37 85 39 79 45 -2 2 -40 -13 -85 -34z"/>
<path d="M1059 1663 c0 -5 0 -26 1 -49 1 -34 -3 -44 -24 -57 -32 -22 -35 -21
-29 3 3 11 1 20 -5 20 -16 0 -22 -28 -8 -39 18 -15 112 17 97 32 -6 6 -11 30
-11 54 0 24 -4 43 -10 43 -5 0 -10 -3 -11 -7z"/>
<path d="M991 1641 c-7 -5 -9 -11 -5 -14 5 -3 15 1 22 9 14 16 5 18 -17 5z"/>
<path d="M1173 1620 c4 -16 -2 -24 -29 -35 -19 -8 -34 -16 -34 -19 0 -3 15 1
34 9 32 14 35 13 50 -8 14 -20 14 -18 0 26 -16 46 -32 67 -21 27z"/>
<path d="M1905 1560 c-16 -7 -13 -9 16 -9 20 -1 54 -13 80 -30 52 -32 119
-118 119 -151 0 -15 5 -20 15 -17 12 5 48 -43 93 -127 2 -4 -11 -5 -29 -2 -33
7 -33 7 7 -12 23 -11 45 -25 49 -32 6 -9 2 -9 -15 0 -12 6 -24 9 -27 6 -3 -2
10 -11 28 -19 19 -8 52 -34 75 -58 22 -24 56 -55 75 -68 19 -14 -1 13 -47 60
-44 46 -98 113 -118 149 -52 88 -147 218 -188 256 -67 62 -91 72 -133 54z"/>
<path d="M1232 1548 c3 -7 13 -37 23 -66 9 -29 19 -52 21 -49 5 5 -36 127 -43
127 -3 0 -3 -6 -1 -12z"/>
<path d="M706 1535 c-3 -9 -6 -22 -5 -28 0 -7 5 -1 10 12 5 13 8 26 5 28 -2 2
-6 -3 -10 -12z"/>
<path d="M965 1530 c3 -5 11 -10 16 -10 6 0 7 5 4 10 -3 6 -11 10 -16 10 -6 0
-7 -4 -4 -10z"/>
<path d="M720 1505 c0 -8 9 -19 19 -25 28 -14 38 -12 16 3 -10 8 -15 19 -11
25 4 7 1 12 -8 12 -9 0 -16 -7 -16 -15z"/>
<path d="M930 1510 c-13 -8 -13 -10 2 -10 9 0 25 -3 35 -7 17 -6 17 -6 1 10
-19 20 -18 20 -38 7z"/>
<path d="M1178 1513 c6 -2 18 -2 25 0 6 3 1 5 -13 5 -14 0 -19 -2 -12 -5z"/>
<path d="M789 1486 c8 -10 9 -16 1 -19 -6 -3 -5 -4 2 -3 19 4 20 23 2 30 -14
5 -15 4 -5 -8z"/>
<path d="M1095 1490 c-3 -5 3 -10 14 -10 12 0 21 5 21 10 0 6 -6 10 -14 10 -8
0 -18 -4 -21 -10z"/>
<path d="M1175 1490 c-3 -5 1 -10 9 -10 8 0 18 5 21 10 3 6 -1 10 -9 10 -8 0
-18 -4 -21 -10z"/>
<path d="M666 1447 c-15 -19 -26 -37 -26 -41 0 -4 -15 -26 -34 -47 -71 -84
-126 -223 -126 -321 0 -86 71 -287 123 -351 44 -54 95 -81 557 -297 179 -84
397 -187 485 -229 l160 -76 150 0 c142 0 153 2 209 28 85 39 200 159 253 262
73 145 88 203 88 350 0 115 -3 136 -23 180 -13 27 -33 60 -45 73 -44 48 -139
80 -149 51 -2 -6 -26 -13 -52 -16 -39 -5 -47 -3 -41 7 6 9 4 11 -4 6 -7 -5
-10 -10 -7 -13 3 -3 -16 -16 -42 -28 -63 -29 -160 -136 -206 -227 -82 -164
-100 -373 -43 -485 54 -105 161 -138 272 -83 28 13 54 26 59 28 5 3 5 -1 0 -9
-5 -8 -9 -23 -9 -34 0 -33 -84 -68 -165 -69 -62 -1 -72 2 -107 30 -180 145
-131 567 92 789 84 84 111 106 121 97 4 -4 4 -2 0 5 -4 7 4 18 21 27 15 8 23
15 17 16 -17 0 -108 -63 -155 -107 -107 -100 -187 -259 -224 -442 -27 -131 10
-294 84 -373 17 -18 31 -37 31 -41 0 -14 -132 -1 -144 14 -6 8 -22 15 -36 17
-23 2 -70 38 -70 53 0 4 6 9 13 12 6 2 4 3 -6 1 -19 -3 -48 43 -45 73 0 10 0
27 -1 38 -1 17 -3 18 -12 5 -7 -11 -8 -1 -5 35 4 38 3 43 -3 20 -8 -27 -9 -24
-12 25 -8 144 12 272 61 392 43 105 88 174 169 260 94 100 183 148 275 149 51
1 56 2 32 9 -79 24 -200 -32 -312 -144 -163 -163 -239 -353 -239 -596 0 -85 5
-129 19 -170 17 -52 25 -67 61 -123 12 -19 -4 -14 -98 33 -61 31 -157 76 -212
102 -55 26 -147 69 -205 96 -58 27 -139 64 -180 82 -109 48 -213 101 -207 106
4 4 15 1 92 -31 17 -7 41 -16 55 -20 24 -7 56 -22 295 -135 295 -139 339 -158
369 -166 38 -9 27 9 -16 26 -18 8 -159 72 -313 143 -154 71 -318 142 -365 158
-109 37 -287 127 -305 155 -8 12 -24 50 -35 85 -12 35 -28 79 -36 96 -52 113
-8 318 93 434 32 38 43 45 57 37 26 -15 33 0 8 18 l-22 15 26 35 c15 19 24 34
21 34 -3 0 -17 -15 -31 -33z m1700 -444 c19 -12 22 -18 12 -24 -16 -10 -34
-12 -25 -2 9 8 -12 33 -27 33 -6 0 -4 -5 4 -10 17 -11 9 -13 -15 -4 -13 5 -14
8 -3 15 18 12 25 11 54 -8z m-19 -39 c21 -16 41 -28 44 -27 4 1 6 -3 6 -10 -1
-7 9 -34 22 -61 93 -196 -39 -554 -241 -655 -120 -60 -199 -36 -263 80 -29 52
-30 59 -30 174 1 131 17 196 76 301 30 53 139 182 167 198 78 44 161 44 219 0z
m91 -41 c31 -66 27 -80 -4 -18 -14 27 -31 53 -37 57 -8 5 -7 8 3 8 8 0 25 -21
38 -47z m-96 -625 c-40 -58 -112 -126 -112 -107 0 8 6 21 13 28 10 11 9 12 -2
6 -9 -5 -12 -4 -7 3 4 7 13 12 21 12 8 0 35 24 62 54 26 30 49 53 51 51 2 -2
-10 -23 -26 -47z"/>
<path d="M2153 960 c-24 -10 -43 -22 -43 -25 0 -3 10 0 23 6 12 7 40 18 62 25
22 7 31 13 20 13 -11 0 -39 -8 -62 -19z"/>
<path d="M830 1471 c0 -4 19 -13 42 -20 31 -10 38 -15 27 -22 -9 -7 -4 -8 16
-3 23 4 27 3 15 -5 -12 -9 -8 -10 15 -5 20 4 26 3 16 -4 -17 -12 68 -43 101
-35 15 3 19 2 11 -4 -9 -6 27 -23 108 -53 102 -36 129 -51 177 -94 51 -47 54
-48 28 -14 -31 42 -75 72 -144 99 -28 11 -39 19 -27 19 20 1 20 1 0 10 -28 12
-43 12 -25 -1 20 -14 -31 -3 -74 16 l-31 14 30 -4 c30 -5 30 -5 -5 12 -19 9
-52 16 -74 16 -21 0 -33 3 -27 7 7 4 -8 14 -36 24 -26 10 -69 26 -95 36 -27
10 -48 15 -48 11z m167 -67 c-3 -3 -12 -4 -19 -1 -8 3 -5 6 6 6 11 1 17 -2 13
-5z"/>
<path d="M717 1450 c-3 -11 -1 -20 4 -20 5 0 9 9 9 20 0 11 -2 20 -4 20 -2 0
-6 -9 -9 -20z"/>
<path d="M1090 1460 c0 -5 6 -10 14 -10 8 0 18 5 21 10 3 6 -3 10 -14 10 -12
0 -21 -4 -21 -10z"/>
<path d="M1748 1448 c-16 -5 -28 -14 -28 -18 0 -16 69 -62 81 -55 6 4 15 1 20
-6 4 -7 12 -10 16 -5 4 5 2 11 -5 13 -10 4 -9 8 4 17 15 11 14 14 -10 34 -16
12 -34 18 -43 15 -11 -4 -14 -2 -9 5 4 7 6 12 4 11 -2 0 -15 -5 -30 -11z m66
-27 c19 -16 12 -31 -16 -31 -22 0 -71 34 -61 43 9 10 60 2 77 -12z"/>
<path d="M1785 1421 c-6 -11 13 -26 22 -17 4 3 1 6 -6 6 -7 0 -9 5 -6 10 3 6
4 10 1 10 -3 0 -7 -4 -11 -9z"/>
<path d="M1164 1425 c11 -8 24 -15 30 -15 5 0 1 7 -10 15 -10 8 -23 14 -29 14
-5 0 -1 -6 9 -14z"/>
<path d="M1218 1403 c7 -3 16 -2 19 1 4 3 -2 6 -13 5 -11 0 -14 -3 -6 -6z"/>
<path d="M2035 1370 c-13 -5 -14 -9 -5 -9 8 0 24 4 35 9 13 5 14 9 5 9 -8 0
-24 -4 -35 -9z"/>
<path d="M985 1352 c-3 -3 -5 -56 -5 -118 l0 -113 35 -12 c19 -7 35 -15 35
-19 0 -3 12 -6 28 -6 26 -1 25 -1 -8 13 -19 9 -45 19 -57 24 -22 8 -23 14 -23
114 0 78 3 105 13 104 6 0 46 -12 87 -27 l75 -27 3 -109 3 -109 -33 6 -33 6
30 -14 c17 -7 33 -11 38 -8 13 8 8 220 -6 231 -18 15 -175 70 -182 64z"/>
<path d="M1970 1353 c-8 -2 -21 -7 -29 -9 -8 -2 -12 -7 -9 -9 3 -3 22 1 44 9
35 13 30 21 -6 9z"/>
<path d="M1445 1278 c33 -35 72 -78 87 -96 14 -18 36 -32 47 -32 19 0 191 86
191 96 0 2 -35 -13 -77 -33 -107 -50 -134 -52 -158 -17 -26 41 -106 124 -130
136 -11 6 7 -18 40 -54z"/>
<path d="M1985 1330 c-19 -8 -19 -9 2 -9 12 -1 25 4 28 9 7 12 -2 12 -30 0z"/>
<path d="M1365 1314 c11 -9 27 -21 36 -27 29 -22 90 -110 85 -123 -3 -8 -1
-13 5 -11 6 1 16 -15 23 -35 8 -21 11 -38 9 -38 -3 0 0 -7 7 -15 7 -8 9 -15 4
-15 -4 0 -1 -6 8 -12 26 -21 51 -114 44 -161 -4 -30 -3 -38 4 -27 9 13 11 13
21 0 9 -13 10 -12 5 3 -3 9 -1 17 3 17 14 0 2 59 -20 106 -10 22 -19 46 -19
52 0 7 -4 20 -9 30 -6 9 -21 42 -34 73 -27 62 -134 183 -170 192 -22 6 -22 6
-2 -9z"/>
<path d="M1305 1310 c-13 -6 -15 -9 -5 -9 8 0 22 4 30 9 18 12 2 12 -25 0z"/>
<path d="M1865 1310 c-3 -6 1 -7 9 -4 18 7 21 14 7 14 -6 0 -13 -4 -16 -10z"/>
<path d="M643 1291 c0 -11 5 -17 9 -15 11 7 10 34 -1 34 -6 0 -9 -9 -8 -19z"/>
<path d="M713 1265 c0 -30 6 -28 12 4 2 11 0 21 -4 21 -5 0 -8 -11 -8 -25z"/>
<path d="M2070 1277 c0 -8 -6 -14 -12 -14 -42 -3 -80 -12 -91 -22 -8 -6 -18
-7 -22 -3 -5 4 -5 -2 -1 -12 5 -15 4 -17 -7 -8 -21 18 -80 -7 -73 -31 4 -17 3
-18 -13 -3 -22 20 -32 21 -25 2 10 -26 37 -27 85 -1 27 14 57 25 66 25 15 0
16 2 3 10 -13 8 -12 10 3 10 9 0 17 5 17 11 0 8 4 8 13 1 7 -6 22 -9 32 -7 11
2 35 4 54 4 l34 1 -23 25 c-26 28 -40 32 -40 12z"/>
<path d="M660 1261 c0 -5 7 -11 15 -15 8 -3 15 -1 15 3 0 5 -7 11 -15 15 -8 3
-15 1 -15 -3z"/>
<path d="M712 1205 c0 -16 2 -22 5 -12 2 9 2 23 0 30 -3 6 -5 -1 -5 -18z"/>
<path d="M2000 1220 c0 -5 5 -10 11 -10 5 0 7 5 4 10 -3 6 -8 10 -11 10 -2 0
-4 -4 -4 -10z"/>
<path d="M1790 1182 c0 -14 39 -46 47 -39 3 4 -2 16 -12 27 -19 21 -35 26 -35
12z"/>
<path d="M710 1153 c0 -10 -3 -36 -6 -58 -3 -25 -2 -35 3 -27 10 13 17 102 8
102 -3 0 -5 -8 -5 -17z"/>
<path d="M1486 1121 c-3 -5 1 -11 9 -14 9 -4 12 -1 8 9 -6 16 -10 17 -17 5z"/>
<path d="M535 1076 c-9 -46 -3 -78 15 -84 13 -5 13 -3 1 12 -9 11 -12 30 -8
61 8 52 1 61 -8 11z"/>
<path d="M667 1081 c-4 -17 -3 -21 5 -13 5 5 8 16 6 23 -3 8 -7 3 -11 -10z"/>
<path d="M2218 1073 c6 -2 18 -2 25 0 6 3 1 5 -13 5 -14 0 -19 -2 -12 -5z"/>
<path d="M1068 1063 c7 -3 16 -2 19 1 4 3 -2 6 -13 5 -11 0 -14 -3 -6 -6z"/>
<path d="M2228 1053 c6 -2 18 -2 25 0 6 3 1 5 -13 5 -14 0 -19 -2 -12 -5z"/>
<path d="M1215 1040 c3 -5 8 -10 11 -10 2 0 4 5 4 10 0 6 -5 10 -11 10 -5 0
-7 -4 -4 -10z"/>
<path d="M500 1000 c0 -5 5 -10 11 -10 5 0 7 5 4 10 -3 6 -8 10 -11 10 -2 0
-4 -4 -4 -10z"/>
<path d="M1350 996 c0 -2 7 -7 16 -10 8 -3 12 -2 9 4 -6 10 -25 14 -25 6z"/>
<path d="M1542 815 c0 -16 2 -22 5 -12 2 9 2 23 0 30 -3 6 -5 -1 -5 -18z"/>
<path d="M980 810 c8 -5 20 -10 25 -10 6 0 3 5 -5 10 -8 5 -19 10 -25 10 -5 0
-3 -5 5 -10z"/>
<path d="M1551 772 c-2 -25 37 -82 55 -82 4 0 -2 10 -14 23 -11 12 -25 33 -31
47 -5 14 -10 19 -10 12z"/>
</g>
</svg>
